<svg xmlns="http://www.w3.org/2000/svg" xmlns:xlink="http://www.w3.org/1999/xlink" width="1080" zoomAndPan="magnify" viewBox="0 0 810 809.999993" height="1080" preserveAspectRatio="xMidYMid meet" version="1.0"><defs><clipPath id="73e39c3636"><path d="M 22.59375 22.59375 L 787.394531 22.59375 L 787.394531 787.394531 L 22.59375 787.394531 Z M 22.59375 22.59375 " clip-rule="nonzero"/></clipPath><clipPath id="3dd3be413c"><path d="M 404.996094 22.59375 C 193.800781 22.59375 22.59375 193.800781 22.59375 404.996094 C 22.59375 616.1875 193.800781 787.394531 404.996094 787.394531 C 616.1875 787.394531 787.394531 616.1875 787.394531 404.996094 C 787.394531 193.800781 616.1875 22.59375 404.996094 22.59375 Z M 404.996094 22.59375 " clip-rule="nonzero"/></clipPath></defs><g clip-path="url(#73e39c3636)"><g clip-path="url(#3dd3be413c)"><path stroke-linecap="butt" transform="matrix(0.75, 0, 0, 0.75, 22.594144, 22.594161)" fill="none" stroke-linejoin="miter" d="M 509.869292 -0.000547711 C 228.275527 -0.000547711 -0.000525711 228.275505 -0.000525711 509.86927 C -0.000525711 791.457825 228.275527 1019.733879 509.869292 1019.733879 C 791.457847 1019.733879 1019.733901 791.457825 1019.733901 509.86927 C 1019.733901 228.275505 791.457847 -0.000547711 509.869292 -0.000547711 Z M 509.869292 -0.000547711 " stroke="#000000" stroke-width="60" stroke-opacity="1" stroke-miterlimit="4"/></g></g><path fill="#000000" d="M 721.0625 394.558594 C 719.273438 410.519531 704.140625 425.882812 690.554688 436.960938 C 683.523438 443.390625 676.851562 449.585938 667.675781 453.992188 C 582.59375 494.84375 487.980469 530.574219 399.320312 555.347656 C 405.519531 549.511719 410.164062 542.128906 414.574219 535.101562 C 414.574219 535.101562 414.574219 534.984375 414.695312 534.984375 L 420.054688 526.289062 C 426.132812 515.210938 436.023438 505.207031 436.382812 491.628906 C 436.382812 467.332031 409.6875 449.941406 390.144531 438.867188 C 372.273438 428.265625 354.875 416.117188 336.285156 406.828125 C 424.585938 392.652344 512.644531 375.742188 595.582031 341.082031 C 607.261719 336.199219 620.84375 331.195312 634.429688 332.863281 C 640.386719 333.578125 645.988281 334.054688 651.351562 334.53125 C 687.21875 334.769531 728.808594 353.46875 721.0625 394.558594 Z M 245.839844 491.867188 C 237.738281 505.207031 229.515625 519.5 214.382812 525.929688 C 183.875 539.867188 133.113281 528.074219 119.171875 501.515625 C 101.175781 471.382812 121.671875 430.410156 140.382812 403.132812 C 142.050781 399.085938 149.558594 390.269531 152.535156 388.367188 C 155.753906 386.339844 158.730469 385.625 162.070312 385.863281 C 176.84375 389.554688 189.953125 400.039062 203.300781 407.777344 C 219.742188 418.738281 238.453125 426.835938 251.917969 441.722656 C 269.078125 460.898438 256.921875 474.476562 245.839844 491.867188 Z M 147.292969 418.378906 C 147.648438 422.546875 152.535156 422.429688 154.085938 418.855469 C 157.183594 414.449219 163.5 413.019531 168.382812 413.617188 C 176.726562 414.6875 184.113281 420.046875 191.742188 424.097656 L 183.28125 422.90625 C 188.164062 423.621094 191.742188 424.097656 191.742188 424.097656 C 195.433594 425.765625 209.375 433.625 210.925781 426.71875 C 211.164062 424.929688 209.851562 423.382812 208.066406 423.144531 C 193.648438 421.117188 183.996094 409.089844 169.21875 407.304688 C 161.472656 406.230469 150.035156 409.328125 147.292969 418.378906 Z M 169.8125 421.117188 C 174.222656 421.714844 178.871094 422.429688 182.683594 422.90625 Z M 162.546875 420.046875 C 164.453125 420.285156 166.714844 420.640625 168.980469 420.878906 Z M 155.039062 418.976562 C 155.394531 418.976562 155.992188 419.09375 156.707031 419.214844 Z M 129.300781 487.816406 C 127.75 474.359375 129.65625 460.542969 135.136719 448.035156 C 135.851562 446.488281 135.136719 444.464844 133.46875 443.75 C 125.007812 438.746094 116.90625 493.414062 126.4375 490.914062 C 128.109375 490.914062 129.300781 489.484375 129.300781 487.816406 Z M 181.613281 518.664062 C 181.851562 516.878906 180.539062 515.332031 178.75 515.09375 C 175.175781 514.378906 155.515625 512.949219 152.417969 511.28125 C 151.464844 510.921875 148.601562 509.734375 146.816406 507.945312 C 144.910156 505.921875 141.214844 507.46875 141.335938 510.207031 C 141.8125 514.019531 147.648438 516.046875 149.914062 517.234375 C 154.324219 519.378906 172.914062 520.570312 177.917969 521.523438 C 179.703125 521.644531 181.375 520.453125 181.613281 518.664062 Z M 193.289062 520.808594 C 192.695312 518.070312 191.503906 515.449219 191.144531 512.589844 C 189.953125 505.800781 190.546875 498.773438 192.8125 492.222656 C 193.289062 490.914062 193.765625 489.605469 194.242188 488.292969 C 196.984375 480.550781 203.0625 471.382812 201.390625 462.449219 C 204.015625 460.898438 208.542969 459.945312 208.898438 456.492188 C 208.183594 451.609375 204.253906 453.394531 201.273438 455.183594 C 197.101562 457.445312 192.457031 458.757812 187.570312 459.230469 C 186.734375 459.351562 185.902344 459.46875 185.066406 459.46875 C 187.6875 451.492188 194.003906 444.820312 201.75 442.199219 C 208.304688 439.9375 215.691406 440.292969 222.605469 441.128906 C 225.582031 441.367188 230.230469 443.035156 230.945312 438.867188 C 231.183594 437.078125 229.871094 435.53125 228.203125 435.292969 C 212.476562 432.316406 191.859375 433.863281 182.804688 449.824219 C 181.015625 452.679688 179.464844 455.777344 178.632812 459.113281 C 171.007812 457.921875 163.738281 454.109375 158.492188 448.511719 C 156.230469 446.011719 154.203125 443.273438 151.820312 440.769531 C 149.320312 437.675781 138.355469 429.574219 136.804688 437.316406 C 136.804688 438.867188 137.996094 440.292969 139.546875 440.53125 C 145.386719 441.367188 149.558594 448.394531 153.847656 452.917969 C 156.707031 456.015625 160.042969 458.636719 163.738281 460.660156 C 160.402344 463.878906 137.640625 493.058594 134.183594 497.34375 C 131.5625 500.5625 136.6875 504.730469 139.191406 501.394531 C 143.480469 496.394531 165.523438 467.332031 170.054688 463.640625 C 178.035156 466.617188 187.09375 466.855469 195.316406 464.710938 C 195.433594 467.332031 195.195312 470.667969 194.125 472.929688 C 188.878906 484.480469 184.351562 493.535156 184.351562 505.5625 C 184.351562 511.160156 185.304688 516.640625 187.332031 521.882812 C 187.925781 523.546875 189.832031 524.382812 191.503906 523.785156 C 192.574219 523.308594 193.289062 522 193.289062 520.808594 Z M 227.726562 467.09375 L 229.871094 463.519531 C 229.277344 464.472656 228.5625 465.664062 227.726562 467.09375 Z M 221.292969 478.289062 L 224.273438 473.046875 C 223.320312 474.714844 222.363281 476.382812 221.292969 478.289062 Z M 192.8125 500.441406 C 192.933594 499.132812 193.171875 497.820312 193.289062 496.632812 Z M 191.859375 507.707031 C 191.980469 506.636719 192.097656 505.445312 192.335938 504.253906 Z M 191.503906 510.328125 C 191.503906 510.207031 191.503906 510.089844 191.503906 509.96875 Z M 238.570312 453.992188 C 238.691406 452.207031 237.261719 450.65625 235.472656 450.65625 C 230.347656 450.894531 232.492188 457.445312 231.300781 460.78125 C 228.5625 478.289062 219.148438 494.726562 205.324219 505.800781 L 219.863281 480.671875 C 212.832031 492.699219 205.324219 505.800781 205.324219 505.800781 C 203.179688 508.183594 198.53125 509.257812 198.054688 512.710938 C 197.9375 515.210938 201.035156 516.878906 203.0625 515.449219 C 223.796875 502.230469 237.378906 478.644531 238.570312 453.992188 Z M 301.25 414.210938 C 286 415.28125 271.460938 420.285156 256.089844 418.378906 C 230.109375 415.640625 202.703125 404.5625 188.402344 381.578125 C 183.875 382.292969 179.347656 383.003906 174.699219 383.71875 C 191.742188 392.296875 207.589844 403.371094 224.035156 413.140625 C 242.621094 423.5 270.984375 442.320312 266.574219 466.972656 C 264.070312 477.8125 256.566406 486.148438 251.203125 495.441406 C 245.722656 504.015625 240.597656 513.542969 233.210938 520.808594 C 242.859375 518.070312 252.75 515.210938 263.238281 511.996094 C 260.140625 475.550781 281.707031 442.796875 301.25 414.210938 Z M 409.210938 531.527344 C 405.398438 537.722656 401.347656 544.035156 396.460938 549.15625 C 366.074219 580.480469 295.171875 567.855469 276.941406 534.269531 C 256.804688 498.179688 280.875 457.445312 300.773438 426.003906 C 303.394531 421.238281 309.355469 415.042969 312.691406 411.710938 L 312.929688 411.949219 C 317.339844 409.207031 321.390625 408.492188 326.394531 409.683594 C 340.933594 415.402344 354.398438 424.574219 367.980469 432.910156 C 390.144531 448.75 432.089844 463.042969 429.589844 495.558594 C 425.777344 508.304688 415.765625 519.617188 409.210938 531.527344 Z M 313.761719 446.011719 C 330.804688 425.527344 352.253906 455.0625 372.152344 456.253906 C 374.058594 456.492188 375.726562 454.945312 375.726562 453.039062 C 375.726562 451.371094 374.535156 450.0625 372.867188 449.824219 C 357.257812 447.679688 346.890625 434.695312 331.042969 432.671875 C 322.9375 431.601562 312.570312 434.457031 308.164062 442.914062 C 306.136719 446.726562 311.855469 449.703125 313.761719 446.011719 Z M 287.785156 519.378906 C 286.117188 504.847656 288.261719 489.84375 294.101562 476.382812 C 294.816406 474.835938 294.101562 472.808594 292.433594 472.09375 C 283.851562 466.972656 275.15625 524.976562 284.925781 522.476562 C 286.59375 522.359375 287.785156 521.046875 287.785156 519.378906 Z M 344.148438 552.492188 C 344.386719 550.703125 343.078125 549.15625 341.289062 548.917969 C 337.355469 548.203125 316.144531 546.535156 312.808594 544.75 C 311.738281 544.273438 308.640625 543.082031 306.734375 541.058594 C 304.824219 539.03125 301.132812 540.582031 301.25 543.320312 C 302.085938 547.25 306.253906 548.558594 310.308594 550.703125 C 314.953125 553.085938 335.09375 554.398438 340.457031 555.347656 C 342.363281 555.585938 344.03125 554.277344 344.148438 552.492188 Z M 356.660156 553.683594 C 353.207031 544.390625 352.96875 534.03125 356.183594 524.621094 C 358.6875 514.855469 367.742188 503.0625 365.71875 491.746094 C 368.695312 490.082031 373.34375 489.246094 373.820312 485.554688 C 373.941406 483.054688 370.84375 481.386719 368.816406 482.816406 C 363.097656 486.625 355.230469 489.007812 348.199219 489.007812 C 354.277344 468.402344 375.847656 465.664062 394.078125 469.238281 C 395.984375 469.476562 397.773438 467.925781 397.652344 466.019531 C 397.652344 464.472656 396.460938 463.042969 394.792969 462.804688 C 374.65625 458.875 350.703125 462.566406 342.601562 485.195312 L 336.640625 487.460938 L 336.523438 487.578125 C 329.96875 485.671875 324.011719 481.980469 319.484375 477.097656 C 313.882812 471.023438 309.472656 463.164062 300.179688 461.613281 C 296.007812 461.019531 295.054688 467.332031 299.226562 468.046875 C 309.949219 470.90625 314.835938 485.671875 325.679688 489.960938 C 321.867188 493.652344 297.558594 524.976562 293.625 529.742188 C 292.550781 531.171875 292.789062 533.195312 294.101562 534.269531 C 295.53125 535.339844 297.558594 535.101562 298.628906 533.792969 L 325.320312 500.324219 C 327.226562 497.941406 329.492188 495.082031 332.113281 492.820312 C 340.8125 496.035156 350.703125 496.394531 359.640625 494.011719 C 359.761719 496.988281 359.523438 500.800781 358.328125 503.300781 C 349.75 520.570312 343.792969 537.722656 350.941406 555.945312 C 351.539062 557.613281 353.445312 558.445312 355.113281 557.851562 C 356.421875 557.253906 357.257812 555.347656 356.660156 553.683594 Z M 405.636719 482.933594 C 405.757812 481.148438 404.328125 479.597656 402.539062 479.597656 C 400.511719 479.480469 399.203125 480.910156 399.203125 482.695312 C 398.011719 507.113281 384.546875 530.457031 363.929688 543.675781 C 361.191406 545.34375 362.621094 549.75 365.71875 549.632812 C 389.3125 536.886719 404.207031 509.375 405.636719 482.933594 Z M 194.71875 320.476562 C 202.464844 304.160156 214.5 290.222656 226.65625 276.167969 C 231.777344 269.261719 240.953125 260.6875 249.535156 261.875 C 264.546875 266.878906 276.347656 280.695312 288.976562 290.460938 C 306.375 307.015625 332.351562 320.59375 337.832031 345.605469 C 339.621094 354.898438 335.449219 361.804688 328.777344 368.953125 C 328.777344 368.953125 312.808594 387.53125 312.808594 387.53125 C 297.796875 409.089844 271.339844 416.59375 246.199219 410.398438 C 198.414062 401.585938 173.390625 364.304688 194.71875 320.476562 Z M 247.984375 393.84375 C 244.410156 392.652344 225.105469 388.128906 222.246094 385.984375 C 219.863281 384.554688 218.195312 383.125 217.242188 381.816406 C 215.453125 379.3125 211.28125 380.742188 211.402344 383.71875 C 212.117188 387.292969 215.335938 389.078125 218.910156 391.582031 C 222.960938 394.441406 241.3125 398.488281 246.199219 400.039062 C 247.867188 400.515625 249.652344 399.5625 250.128906 397.773438 C 250.726562 396.105469 249.773438 394.320312 247.984375 393.84375 Z M 310.664062 340.605469 C 310.1875 342.988281 309.59375 345.25 308.878906 347.511719 C 303.515625 364.664062 291.597656 379.671875 275.988281 388.722656 L 287.308594 374.550781 C 281.113281 382.289062 275.988281 388.722656 275.988281 388.722656 C 273.367188 390.984375 266.335938 391.582031 268.003906 396.34375 C 268.71875 398.011719 270.625 398.726562 272.292969 398.011719 C 295.054688 387.769531 312.570312 365.972656 317.101562 341.320312 C 317.101562 337.507812 311.261719 336.914062 310.664062 340.605469 Z M 297.4375 361.6875 C 295.769531 363.828125 294.101562 365.972656 292.3125 368.117188 Z M 301.25 356.921875 C 301.132812 357.039062 301.011719 357.277344 300.894531 357.398438 Z M 307.804688 348.703125 C 307.328125 349.300781 306.613281 350.132812 305.777344 351.203125 Z M 231.183594 292.960938 C 231.421875 296.894531 235.949219 297.011719 237.855469 294.035156 C 241.667969 290.105469 248.105469 289.628906 252.988281 290.9375 C 261.210938 293.320312 267.765625 299.871094 274.796875 304.992188 L 256.328125 299.511719 C 265.503906 302.253906 274.796875 304.992188 274.796875 304.992188 C 278.253906 307.136719 290.882812 317.140625 293.503906 310.472656 C 293.980469 308.804688 292.910156 307.015625 291.242188 306.539062 C 277.179688 302.371094 269.316406 288.792969 254.898438 284.863281 C 247.269531 282.480469 234.519531 283.910156 231.183594 292.960938 Z M 239.167969 294.390625 C 239.40625 294.511719 239.523438 294.511719 239.761719 294.628906 Z M 217.835938 310.234375 C 217.835938 311.664062 218.671875 312.851562 220.101562 313.328125 C 224.511719 314.640625 227.132812 319.164062 229.871094 323.8125 C 232.730469 328.933594 236.425781 333.457031 241.074219 337.152344 C 237.261719 339.890625 210.089844 365.617188 205.921875 369.308594 C 202.824219 372.167969 207.351562 376.929688 210.328125 374.074219 C 215.453125 369.664062 241.667969 344.175781 246.914062 340.960938 C 254.539062 345.25 263.476562 346.679688 272.054688 345.84375 C 271.816406 352.15625 267.527344 356.683594 264.546875 361.804688 C 258.828125 370.855469 254.0625 381.21875 254.300781 392.175781 C 254.898438 395.867188 253.464844 403.847656 258.472656 404.445312 C 260.257812 404.445312 261.6875 402.894531 261.6875 401.230469 C 261.09375 397.773438 260.734375 394.320312 260.855469 390.746094 C 261.09375 385.507812 262.164062 380.265625 264.429688 375.382812 C 268.363281 365.257812 278.847656 355.613281 278.609375 344.652344 C 281.46875 343.464844 286.714844 343.226562 286.953125 339.414062 C 286.476562 335.007812 282.421875 336.199219 279.5625 337.507812 C 275.035156 339.054688 270.148438 339.769531 265.144531 339.414062 C 264.308594 339.414062 263.476562 339.414062 262.640625 339.292969 C 266.457031 331.671875 273.84375 325.953125 281.945312 324.527344 C 288.859375 323.214844 296.128906 324.765625 303.039062 326.550781 C 305.898438 327.144531 310.1875 329.648438 311.617188 325.597656 C 312.09375 323.929688 311.140625 322.144531 309.355469 321.667969 C 294.101562 316.308594 273.246094 314.757812 261.808594 329.289062 C 259.542969 331.910156 257.636719 334.769531 256.207031 337.984375 C 248.699219 335.601562 242.027344 330.601562 237.738281 324.289062 C 235.832031 321.429688 234.164062 318.332031 232.136719 315.472656 C 230.109375 311.78125 219.863281 301.894531 217.835938 310.234375 Z M 202.824219 358.707031 C 203.300781 345.128906 207.46875 331.789062 214.621094 320.238281 C 216.882812 316.785156 211.402344 313.210938 209.136719 316.785156 C 201.273438 329.289062 196.863281 343.820312 196.269531 358.589844 C 196.269531 360.375 197.699219 361.804688 199.484375 361.804688 C 201.273438 361.925781 202.703125 360.496094 202.824219 358.707031 Z M 308.757812 298.679688 C 331.160156 315.234375 360.832031 347.273438 333.664062 373 C 324.367188 383.003906 312.570312 399.679688 301.609375 407.542969 C 304.230469 406.945312 307.449219 407.304688 309.832031 406.113281 C 313.046875 403.847656 317.457031 402.777344 321.269531 402.417969 C 400.632812 390.746094 463.074219 377.644531 521.703125 360.257812 C 546.011719 352.515625 572.941406 345.726562 596.058594 332.980469 C 623.230469 318.332031 635.859375 279.148438 606.785156 256.277344 C 594.867188 246.15625 581.046875 242.820312 564.957031 238.890625 C 560.074219 237.699219 554.949219 236.507812 549.585938 234.960938 C 529.6875 229.480469 508 239.484375 487.859375 243.175781 C 421.128906 255.800781 351.539062 261.519531 263.832031 261.757812 C 264.90625 262.472656 265.859375 263.304688 266.933594 264.019531 C 281.46875 274.738281 294.816406 287.363281 308.757812 298.679688 Z M 308.757812 298.679688 " fill-opacity="1" fill-rule="nonzero"/></svg>