<svg xmlns="http://www.w3.org/2000/svg" xmlns:xlink="http://www.w3.org/1999/xlink" width="1080" zoomAndPan="magnify" viewBox="0 0 810 809.999993" height="1080" preserveAspectRatio="xMidYMid meet" version="1.0"><defs><clipPath id="c62173a89d"><path d="M 22.59375 22.59375 L 787.394531 22.59375 L 787.394531 787.394531 L 22.59375 787.394531 Z M 22.59375 22.59375 " clip-rule="nonzero"/></clipPath><clipPath id="ee6d04bf4d"><path d="M 404.996094 22.59375 C 193.800781 22.59375 22.59375 193.800781 22.59375 404.996094 C 22.59375 616.1875 193.800781 787.394531 404.996094 787.394531 C 616.1875 787.394531 787.394531 616.1875 787.394531 404.996094 C 787.394531 193.800781 616.1875 22.59375 404.996094 22.59375 Z M 404.996094 22.59375 " clip-rule="nonzero"/></clipPath><clipPath id="aced1ee83b"><path d="M 118.707031 118.707031 L 690.957031 118.707031 L 690.957031 690.957031 L 118.707031 690.957031 Z M 118.707031 118.707031 " clip-rule="nonzero"/></clipPath></defs><g clip-path="url(#c62173a89d)"><g clip-path="url(#ee6d04bf4d)"><path stroke-linecap="butt" transform="matrix(0.75, 0, 0, 0.75, 22.594144, 22.594161)" fill="none" stroke-linejoin="miter" d="M 509.869292 -0.000547711 C 228.275527 -0.000547711 -0.000525711 228.275505 -0.000525711 509.86927 C -0.000525711 791.457825 228.275527 1019.733879 509.869292 1019.733879 C 791.457847 1019.733879 1019.733901 791.457825 1019.733901 509.86927 C 1019.733901 228.275505 791.457847 -0.000547711 509.869292 -0.000547711 Z M 509.869292 -0.000547711 " stroke="#000000" stroke-width="60" stroke-opacity="1" stroke-miterlimit="4"/></g></g><g clip-path="url(#aced1ee83b)"><path fill="#231f20" d="M 405.050781 118.707031 C 246.90625 118.707031 118.707031 246.90625 118.707031 404.941406 C 118.707031 563.085938 246.90625 691.285156 405.050781 691.285156 C 563.085938 691.285156 691.285156 563.085938 691.285156 404.941406 C 691.285156 246.90625 563.085938 118.707031 405.050781 118.707031 Z M 398.929688 262.644531 C 433.46875 225.59375 438.167969 200.347656 426.691406 139.910156 C 455.324219 171.058594 463.960938 238.273438 431.0625 272.699219 C 401.664062 303.410156 389.640625 330.734375 398.929688 396.199219 C 373.136719 361.445312 359.804688 304.613281 398.929688 262.644531 Z M 347.34375 265.703125 C 371.390625 240.019531 374.667969 222.425781 366.691406 180.457031 C 386.472656 202.097656 392.484375 248.765625 369.640625 272.699219 C 349.3125 294.011719 340.898438 312.917969 347.34375 358.382812 C 329.53125 334.230469 320.242188 294.777344 347.34375 265.703125 Z M 458.058594 265.703125 C 481.992188 240.019531 485.269531 222.425781 477.402344 180.457031 C 497.183594 202.097656 503.195312 248.765625 480.351562 272.699219 C 459.914062 294.011719 451.609375 312.917969 458.058594 358.382812 C 440.242188 334.230469 430.953125 294.777344 458.058594 265.703125 Z M 323.519531 531.0625 C 312.480469 531.9375 307.234375 531.28125 297.945312 527.566406 C 288.765625 523.960938 279.804688 516.417969 270.839844 501.773438 C 268.21875 497.511719 266.140625 490.1875 265.484375 481.773438 C 265.050781 475.105469 265.59375 468.003906 267.890625 461.664062 C 269.96875 455.871094 273.574219 450.734375 279.148438 447.238281 C 283.191406 444.722656 288.4375 443.085938 295.214844 442.757812 C 298.054688 476.636719 308.4375 507.238281 323.519531 531.0625 Z M 334.449219 545.492188 C 342.207031 554.78125 350.953125 562.539062 360.351562 568.550781 C 330.625 567.019531 303.847656 567.675781 270.839844 564.507812 C 264.613281 563.851562 262.753906 568.550781 267.671875 570.957031 C 290.078125 581.777344 315.105469 590.410156 340.242188 590.191406 L 470.515625 590.191406 C 495.652344 590.410156 520.789062 581.777344 543.195312 570.957031 C 548.113281 568.550781 546.253906 563.851562 540.027344 564.507812 C 507.019531 567.675781 480.132812 567.019531 451.171875 568.769531 C 490.625 544.617188 518.167969 489.425781 518.167969 425.160156 C 518.167969 422.757812 518.058594 420.351562 518.058594 418.058594 L 294.777344 417.949219 C 294.667969 420.351562 294.667969 422.757812 294.667969 425.160156 L 294.667969 426.800781 C 285.378906 427.457031 277.070312 429.859375 270.839844 433.6875 C 261.878906 439.148438 256.195312 447.238281 252.917969 456.308594 C 249.855469 464.941406 248.984375 474.34375 249.640625 482.976562 C 250.402344 493.796875 253.464844 503.851562 257.289062 510.082031 C 268.328125 528.113281 279.914062 537.621094 292.042969 542.429688 C 304.285156 547.238281 321.007812 546.582031 333.902344 545.710938 " fill-opacity="1" fill-rule="evenodd"/></g><path fill="#231f20" d="M 532.921875 205.15625 L 525.164062 197.398438 L 532.921875 189.527344 Z M 540.792969 213.027344 L 532.921875 205.15625 L 540.792969 197.398438 Z M 548.550781 213.027344 L 540.792969 205.15625 L 548.550781 197.398438 Z M 532.921875 197.398438 L 540.792969 189.527344 L 548.550781 197.398438 Z M 538.496094 182.972656 C 548.441406 182.972656 556.636719 191.058594 556.636719 201.003906 C 556.636719 211.058594 548.441406 219.144531 538.496094 219.144531 C 528.441406 219.144531 520.355469 211.058594 520.355469 201.003906 C 520.355469 191.058594 528.441406 182.972656 538.496094 182.972656 Z M 538.496094 180.785156 C 549.644531 180.785156 558.714844 189.855469 558.714844 201.003906 C 558.714844 212.261719 549.644531 221.332031 538.496094 221.332031 C 527.347656 221.332031 518.277344 212.261719 518.277344 201.003906 C 518.277344 189.855469 527.347656 180.785156 538.496094 180.785156 Z M 538.496094 180.785156 " fill-opacity="1" fill-rule="evenodd"/></svg>