<svg xmlns="http://www.w3.org/2000/svg" xmlns:xlink="http://www.w3.org/1999/xlink" width="1080" zoomAndPan="magnify" viewBox="0 0 810 809.999993" height="1080" preserveAspectRatio="xMidYMid meet" version="1.0"><defs><clipPath id="741489c10f"><path d="M 22.59375 22.59375 L 787.394531 22.59375 L 787.394531 787.394531 L 22.59375 787.394531 Z M 22.59375 22.59375 " clip-rule="nonzero"/></clipPath><clipPath id="107d1dc89a"><path d="M 404.996094 22.59375 C 193.800781 22.59375 22.59375 193.800781 22.59375 404.996094 C 22.59375 616.1875 193.800781 787.394531 404.996094 787.394531 C 616.1875 787.394531 787.394531 616.1875 787.394531 404.996094 C 787.394531 193.800781 616.1875 22.59375 404.996094 22.59375 Z M 404.996094 22.59375 " clip-rule="nonzero"/></clipPath><clipPath id="1694893d9c"><path d="M 516 358 L 737.867188 358 L 737.867188 550.621094 L 516 550.621094 Z M 516 358 " clip-rule="nonzero"/></clipPath><clipPath id="6ac4dae42f"><path d="M 304 704 L 360 704 L 360 724.964844 L 304 724.964844 Z M 304 704 " clip-rule="nonzero"/></clipPath><clipPath id="971542936b"><path d="M 378.515625 704.527344 L 433.976562 704.527344 L 433.976562 724.964844 L 378.515625 724.964844 Z M 378.515625 704.527344 " clip-rule="nonzero"/></clipPath><clipPath id="96af62179f"><path d="M 453 704.527344 L 508 704.527344 L 508 724.964844 L 453 724.964844 Z M 453 704.527344 " clip-rule="nonzero"/></clipPath></defs><g clip-path="url(#741489c10f)"><g clip-path="url(#107d1dc89a)"><path stroke-linecap="butt" transform="matrix(0.75, 0, 0, 0.75, 22.594144, 22.59412)" fill="none" stroke-linejoin="miter" d="M 509.869292 -0.000493951 C 228.275527 -0.000493951 -0.000525711 228.275559 -0.000525711 509.869323 C -0.000525711 791.457879 228.275527 1019.733932 509.869292 1019.733932 C 791.457847 1019.733932 1019.733901 791.457879 1019.733901 509.869323 C 1019.733901 228.275559 791.457847 -0.000493951 509.869292 -0.000493951 Z M 509.869292 -0.000493951 " stroke="#000000" stroke-width="60" stroke-opacity="1" stroke-miterlimit="4"/></g></g><path fill="#000000" d="M 433.570312 415.199219 L 433.570312 322.503906 C 433.570312 298.816406 440.8125 286.316406 440.148438 273.8125 C 439.496094 261.316406 430.285156 261.972656 430.285156 261.972656 L 382.296875 261.972656 C 382.296875 261.972656 373.082031 261.316406 372.421875 273.8125 C 371.765625 286.316406 379.007812 298.816406 379.007812 322.503906 L 379.007812 415.199219 C 379.007812 438.886719 371.765625 451.386719 372.421875 463.886719 C 373.082031 476.394531 382.296875 475.730469 382.296875 475.730469 L 430.285156 475.730469 C 430.285156 475.730469 439.496094 476.394531 440.148438 463.886719 C 440.8125 451.386719 433.570312 438.886719 433.570312 415.199219 " fill-opacity="1" fill-rule="nonzero"/><path fill="#000000" d="M 432.914062 88.539062 C 437.28125 96.0625 429.027344 109.007812 414.472656 117.457031 C 399.921875 125.902344 384.585938 126.652344 380.214844 119.132812 C 375.851562 111.613281 384.105469 98.667969 398.664062 90.21875 C 413.210938 81.769531 428.550781 81.023438 432.914062 88.539062 " fill-opacity="1" fill-rule="nonzero"/><path fill="#000000" d="M 433.570312 130.878906 L 433.570312 110.503906 C 429.5625 115.328125 424.164062 119.8125 417.941406 123.429688 C 408.980469 128.632812 399.929688 131.226562 392.25 131.226562 C 387.050781 131.226562 382.492188 130.027344 379.007812 127.660156 L 379.007812 194.628906 C 379.007812 218.316406 371.765625 230.8125 372.421875 243.3125 C 373.082031 255.820312 382.296875 255.164062 382.296875 255.164062 L 430.285156 255.164062 C 430.285156 255.164062 439.496094 255.820312 440.148438 243.3125 C 440.8125 230.8125 433.570312 218.316406 433.570312 194.628906 L 433.570312 130.878906 " fill-opacity="1" fill-rule="nonzero"/><path fill="#000000" d="M 359.542969 453.695312 L 359.542969 360.996094 C 359.542969 337.3125 366.785156 324.808594 366.125 312.308594 C 365.46875 299.804688 356.253906 300.464844 356.253906 300.464844 L 308.261719 300.464844 C 308.261719 300.464844 299.054688 299.804688 298.394531 312.308594 C 297.734375 324.808594 304.976562 337.3125 304.976562 360.996094 L 304.976562 453.695312 C 304.976562 477.382812 297.734375 489.886719 298.394531 502.386719 C 299.054688 514.890625 308.261719 514.230469 308.261719 514.230469 L 356.253906 514.230469 C 356.253906 514.230469 365.46875 514.890625 366.125 502.386719 C 366.785156 489.886719 359.542969 477.382812 359.542969 453.695312 " fill-opacity="1" fill-rule="nonzero"/><path fill="#000000" d="M 358.886719 127.039062 C 363.253906 134.554688 354.992188 147.5 340.441406 155.949219 C 325.890625 164.398438 310.558594 165.148438 306.195312 157.628906 C 301.828125 150.105469 310.082031 137.160156 324.628906 128.710938 C 339.183594 120.261719 354.523438 119.515625 358.886719 127.039062 " fill-opacity="1" fill-rule="nonzero"/><path fill="#000000" d="M 359.542969 169.371094 L 359.542969 148.996094 C 355.539062 153.820312 350.136719 158.3125 343.910156 161.925781 C 334.949219 167.128906 325.898438 169.710938 318.226562 169.710938 C 313.023438 169.710938 308.464844 168.519531 304.976562 166.160156 L 304.976562 233.121094 C 304.976562 256.808594 297.734375 269.3125 298.394531 281.8125 C 299.054688 294.3125 308.261719 293.65625 308.261719 293.65625 L 356.253906 293.65625 C 356.253906 293.65625 365.46875 294.3125 366.125 281.8125 C 366.785156 269.3125 359.542969 256.808594 359.542969 233.121094 L 359.542969 169.371094 " fill-opacity="1" fill-rule="nonzero"/><path fill="#000000" d="M 507.597656 486.265625 L 507.597656 393.570312 C 507.597656 369.882812 514.839844 357.382812 514.179688 344.882812 C 513.523438 332.375 504.3125 333.039062 504.3125 333.039062 L 456.320312 333.039062 C 456.320312 333.039062 447.113281 332.375 446.449219 344.882812 C 445.796875 357.382812 453.03125 369.882812 453.03125 393.570312 L 453.03125 486.265625 C 453.03125 509.957031 445.796875 522.457031 446.449219 534.957031 C 447.113281 547.457031 456.320312 546.804688 456.320312 546.804688 L 504.3125 546.804688 C 504.3125 546.804688 513.523438 547.457031 514.179688 534.957031 C 514.839844 522.457031 507.597656 509.957031 507.597656 486.265625 " fill-opacity="1" fill-rule="nonzero"/><path fill="#000000" d="M 506.945312 159.613281 C 511.308594 167.128906 503.054688 180.074219 488.496094 188.523438 C 473.949219 196.972656 458.609375 197.71875 454.246094 190.203125 C 449.878906 182.679688 458.140625 169.734375 472.691406 161.285156 C 487.238281 152.839844 502.585938 152.089844 506.945312 159.613281 " fill-opacity="1" fill-rule="nonzero"/><path fill="#000000" d="M 507.597656 201.945312 L 507.597656 181.570312 C 503.597656 186.394531 498.191406 190.882812 491.96875 194.496094 C 483.011719 199.703125 473.953125 202.292969 466.285156 202.292969 C 461.085938 202.292969 456.519531 201.09375 453.03125 198.734375 L 453.03125 265.691406 C 453.03125 289.382812 445.796875 301.882812 446.449219 314.382812 C 447.113281 326.886719 456.320312 326.230469 456.320312 326.230469 L 504.3125 326.230469 C 504.3125 326.230469 513.523438 326.886719 514.179688 314.382812 C 514.839844 301.882812 507.597656 289.382812 507.597656 265.691406 L 507.597656 201.945312 " fill-opacity="1" fill-rule="nonzero"/><g clip-path="url(#1694893d9c)"><path fill="#000000" d="M 516.261719 550.28125 C 516.261719 550.28125 565.632812 406.460938 737.867188 358.367188 C 737.867188 358.367188 697.273438 485.1875 516.261719 550.28125 " fill-opacity="1" fill-rule="nonzero"/></g><path fill="#000000" d="M 518.492188 524.007812 C 518.492188 524.007812 502.53125 449.667969 563.902344 384.644531 C 563.902344 384.644531 579.230469 449.429688 518.492188 524.007812 " fill-opacity="1" fill-rule="nonzero"/><path fill="#000000" d="M 293.691406 514.746094 C 293.691406 514.746094 244.324219 370.921875 72.089844 322.832031 C 72.089844 322.832031 112.683594 449.652344 293.691406 514.746094 " fill-opacity="1" fill-rule="nonzero"/><path fill="#000000" d="M 291.46875 488.472656 C 291.46875 488.472656 307.421875 414.132812 246.058594 349.105469 C 246.058594 349.105469 230.730469 413.902344 291.46875 488.472656 " fill-opacity="1" fill-rule="nonzero"/><path fill="#000000" d="M 453.03125 715.019531 L 507.597656 715.019531 L 507.597656 613.65625 C 507.597656 589.960938 514.839844 577.464844 514.179688 564.964844 C 513.523438 552.464844 504.3125 553.117188 504.3125 553.117188 L 456.320312 553.117188 C 456.320312 553.117188 447.113281 552.464844 446.449219 564.964844 C 445.796875 577.464844 453.03125 589.960938 453.03125 613.65625 L 453.03125 715.019531 " fill-opacity="1" fill-rule="nonzero"/><path fill="#000000" d="M 379.007812 606.339844 L 379.007812 715.019531 L 433.570312 715.019531 L 433.570312 542.585938 C 433.570312 518.898438 440.8125 506.398438 440.148438 493.894531 C 439.496094 481.390625 430.285156 482.054688 430.285156 482.054688 L 382.296875 482.054688 C 382.296875 482.054688 373.082031 481.390625 372.421875 493.894531 C 371.765625 506.398438 379.007812 518.898438 379.007812 542.585938 L 379.007812 606.339844 " fill-opacity="1" fill-rule="nonzero"/><path fill="#000000" d="M 304.976562 715.019531 L 359.542969 715.019531 L 359.542969 581.078125 C 359.542969 557.390625 366.785156 544.890625 366.125 532.390625 C 365.46875 519.890625 356.253906 520.546875 356.253906 520.546875 L 308.261719 520.546875 C 308.261719 520.546875 299.054688 519.890625 298.394531 532.390625 C 297.734375 544.890625 304.976562 557.390625 304.976562 581.078125 L 304.976562 715.019531 " fill-opacity="1" fill-rule="nonzero"/><g clip-path="url(#6ac4dae42f)"><path fill="#000000" d="M 359.472656 714.386719 C 359.472656 719.96875 347.269531 724.492188 332.210938 724.492188 C 317.160156 724.492188 304.953125 719.96875 304.953125 714.386719 C 304.953125 708.8125 317.160156 704.289062 332.210938 704.289062 C 347.269531 704.289062 359.472656 708.8125 359.472656 714.386719 " fill-opacity="1" fill-rule="nonzero"/></g><g clip-path="url(#971542936b)"><path fill="#000000" d="M 433.488281 714.855469 C 433.488281 720.441406 421.289062 724.964844 406.234375 724.964844 C 391.179688 724.964844 378.976562 720.441406 378.976562 714.855469 C 378.976562 709.285156 391.179688 704.753906 406.234375 704.753906 C 421.289062 704.753906 433.488281 709.285156 433.488281 714.855469 " fill-opacity="1" fill-rule="nonzero"/></g><g clip-path="url(#96af62179f)"><path fill="#000000" d="M 507.511719 714.742188 C 507.511719 720.328125 495.316406 724.84375 480.253906 724.84375 C 465.203125 724.84375 453 720.328125 453 714.742188 C 453 709.160156 465.203125 704.636719 480.253906 704.636719 C 495.316406 704.636719 507.511719 709.160156 507.511719 714.742188 " fill-opacity="1" fill-rule="nonzero"/></g></svg>